<?xml version="1.0" encoding="UTF-8" standalone="no"?>
<!-- Created with Inkscape (http://www.inkscape.org/) -->

<svg
   width="247.10088mm"
   height="43.542786mm"
   viewBox="0 0 247.10088 43.542786"
   version="1.1"
   id="svg244"
   inkscape:export-filename="ninelogo.svg"
   inkscape:export-xdpi="96"
   inkscape:export-ydpi="96"
   xmlns:inkscape="http://www.inkscape.org/namespaces/inkscape"
   xmlns:sodipodi="http://sodipodi.sourceforge.net/DTD/sodipodi-0.dtd"
   xmlns="http://www.w3.org/2000/svg"
   xmlns:svg="http://www.w3.org/2000/svg">
  <sodipodi:namedview
     id="namedview246"
     pagecolor="#ffffff"
     bordercolor="#000000"
     borderopacity="0.25"
     inkscape:showpageshadow="2"
     inkscape:pageopacity="0.0"
     inkscape:pagecheckerboard="0"
     inkscape:deskcolor="#d1d1d1"
     inkscape:document-units="mm"
     showgrid="false" />
  <defs
     id="defs241" />
  <g
     inkscape:label="Capa 1"
     inkscape:groupmode="layer"
     id="layer1"
     transform="translate(-36.68905,-49.899123)">
    <g
       aria-label="NINE CLARA"
       id="text419"
       style="font-size:44.7971px;font-family:shera;-inkscape-font-specification:'shera, Normal';fill:#fa005a;fill-opacity:0.968627;stroke-width:0.264999">
      <path
         d="m 36.689047,86.139977 0.08959,-32.881072 20.472275,15.455 0.134391,-17.291681 5.55484,6.271594 -0.0448,28.58055 -5.55484,-0.0448 -0.08959,-10.840899 -15.186217,-11.199275 -0.08959,21.995377 z"
         style="stroke-width:0.265"
         id="path1049" />
      <path
         d="m 68.360586,55.946731 5.286058,-4.345319 v 34.404173 l -5.330855,0.985536 z"
         style="stroke-width:0.265"
         id="path1051" />
      <path
         d="m 78.798345,86.139977 0.0896,-32.881072 20.472274,15.455 0.134392,-17.291681 5.554849,6.271594 -0.0448,28.58055 -5.554847,-0.0448 -0.08959,-10.840899 -15.186217,-11.199275 -0.08959,21.995377 z"
         style="stroke-width:0.265"
         id="path1053" />
      <path
         d="m 134.66034,61.232789 q -1.4783,-1.075131 -3.58376,-1.747087 -2.06067,-0.671957 -4.56931,-0.671957 -2.50864,0 -4.83808,0.761551 -2.32945,0.761551 -4.47971,2.911812 -2.10547,2.15026 -3.31499,5.465246 l 9.63138,0.0448 -1.83668,4.345319 -7.8395,-0.134392 q 0.40318,3.40458 2.77742,5.913218 2.37425,2.46384 5.51005,3.449376 3.13579,0.985536 6.58517,0.716754 3.44938,-0.31358 5.95801,-2.01587 l -0.0448,5.734029 q -2.59823,1.299116 -5.64444,1.567899 -3.0014,0.313579 -5.91321,-0.31358 -2.86702,-0.627159 -5.55484,-2.150261 -2.68783,-1.567898 -4.7037,-3.718159 -1.97107,-2.195058 -3.18059,-5.196464 -1.20953,-3.001405 -1.16473,-6.361188 0,-3.180594 1.20952,-6.002811 1.20952,-2.822218 3.1806,-4.838087 1.97107,-2.01587 4.6141,-3.40458 2.68782,-1.38871 5.55484,-1.926275 2.86701,-0.537565 5.91322,-0.179188 3.0462,0.358376 5.73402,1.657492 z"
         style="stroke-width:0.265"
         id="path1055" />
      <path
         d="m 172.42429,58.007398 q -3.31498,-0.403174 -6.22679,0.223985 -2.86702,0.582362 -4.83809,1.926275 -1.97107,1.343913 -3.40458,3.180595 -1.38871,1.791884 -2.06067,3.718159 -0.62716,1.926275 -0.62716,3.807753 0.0448,4.882884 3.94215,8.511449 3.94214,3.583768 11.28887,4.434913 l -4.6141,4.569305 q -2.10547,-0.179189 -4.39012,-1.075131 -2.23985,-0.895942 -4.39012,-2.508638 -2.10546,-1.657492 -3.80775,-3.762956 -1.65749,-2.105464 -2.68782,-4.972478 -0.98554,-2.911812 -0.94074,-6.092406 0.0448,-2.46384 0.98553,-5.017275 0.94074,-2.598232 2.91181,-5.017275 1.97108,-2.419043 4.6141,-4.210927 2.68783,-1.836682 6.49558,-2.732624 3.80776,-0.940739 8.10828,-0.492768 z"
         style="stroke-width:0.265"
         id="path1057" />
      <path
         d="m 176.90404,49.899123 5.15166,2.508637 0.0448,28.804535 11.02009,-0.08959 3.49417,5.062073 -19.71072,-0.0448 z"
         style="stroke-width:0.265"
         id="path1059" />
      <path
         d="m 217.93815,73.10402 -4.21092,-9.586579 -2.46384,5.510043 z m -20.11389,13.080754 16.48533,-35.83768 16.61972,37.98794 -6.27159,0.0896 -3.1358,-7.167536 -12.22961,-7.57071 -5.55484,12.498391 z"
         style="stroke-width:0.265"
         id="path1061" />
      <path
         d="m 233.7515,93.441904 v -39.55584 l 17.20208,-0.0448 q 3.00141,-0.0448 4.16613,1.657493 1.16473,1.657493 0.0896,3.628565 l -6.98835,10.66171 7.03315,6.629971 0.0448,7.212333 -10.57211,-9.900159 q -1.25432,-1.164725 -1.6575,-2.060667 -0.40317,-0.895942 -0.22398,-1.567898 0.17919,-0.671957 0.89594,-1.567899 l 6.58517,-9.900159 h -11.33366 l -0.13439,32.522695 z"
         style="stroke-width:0.265"
         id="path1063" />
      <path
         d="m 270.79875,73.10402 -4.21093,-9.586579 -2.46384,5.510043 z m -20.1139,13.080754 16.48533,-35.83768 16.61973,37.98794 -6.2716,0.0896 -3.13579,-7.167536 -12.22961,-7.57071 -5.55484,12.498391 z"
         style="stroke-width:0.265"
         id="path1065" />
    </g>
  </g>
</svg>
